<svg xmlns="http://www.w3.org/2000/svg" version="1.1" xmlns:xlink="http://www.w3.org/1999/xlink" width="2000" height="571" viewBox="0 0 2000 571"><svg xml:space="preserve" width="2000" height="571" data-version="2" data-id="lg_ASX7iv0iIufLLjTu3R" viewBox="0 0 428 571" x="0" y="0"><rect width="100%" height="100%" fill="transparent"></rect><path fill="#0718c4" d="M214 565.5c-115.983 0-210-94.017-210-210v-140C4 99.517 98.017 5.5 214 5.5s210 94.017 210 210v140c0 115.983-94.017 210-210 210"></path><path fill="#77d4fc" d="m208.37 95.83.1.07q-.58 1.12-1.35 1.89-.77.77-1.64 1.44-.87.67-1.76 1.3t-1.68 1.49q-.47.03-.97.22t-.97.44q-.48.26-.94.55-.47.29-.84.53v.03l-.17.24q-.24-.24-.46-.18-.23.05-.43.22-.21.17-.4.36-.18.18-.35.22l-.04.03v.04q-.75 1.3-1.79 2.2-1.05.91-2.19 1.66-1.15.75-2.34 1.49-1.2.73-2.23 1.69-.58-.58-1.09-.48-.51.1-1.09.55-.52.37-.88.46-.35.09-1-.22l-.07-.04q-.34.21-.69.09-.34-.12-.68-.27-.34-.16-.7-.18-.36-.01-.74.43-.2-.07-.42-.19-.23-.12-.47-.18-.23-.07-.47-.06-.24.02-.48.23-.11-.28-.31-.36-.21-.09-.27-.29l-.04-.04q-.99 0-2.2-.34-1.22-.34-2.11-.92l-.35-.29q-.19-.16-.36-.33l-.24.34q-.86-.51-1.58-1.16-.71-.65-1.38-1.37-.67-.71-1.33-1.43-.67-.72-1.42-1.37-.21-1.5-.99-2.73L165 99.18q-.77-1.2-1.25-2.5t-.1-2.97q.82-.24 1.3.55l.27-.38q.41.48.53 1.21.12.74.28 1.42.15.69.49 1.18.34.5 1.23.46.14.79.5 1.39.36.6.84 1.09.47.5 1.06.94.58.45 1.16.86.55.41 1.3.95.75.55 1.09 1.13l.04.07q1.4 0 2.37.31.98.31 2.21.92l.13.07q.04-.17.19-.39.16-.23.29-.29.34-.14.82.06.48.21.98.38.49.17.9.1.41-.07.62-.75.51.07 1.11.1.6.04 1.18-.05.58-.08 1.08-.31.49-.22.87-.63.55.48.92.26.38-.22.7-.53.33-.31.63-.43.31-.12.76.6.37-.17.87-.34.49-.17.87-.34.89-.38 1.98-.74 1.1-.36 2.05-.36.21-.17.48-.49.28-.33.53-.69.26-.36.43-.72.17-.36.17-.59.24-.35.48-.64.24-.29.44-.6.21-.3.35-.63.13-.32.13-.8.69-.79 1.05-1.83.36-1.04.18-2.1.24-.31.55-.89.31-.58.58-1.23.28-.65.46-1.25.19-.6.19-.91 0-.37-.1-.56-.1-.19-.48-.39-.44-.24-.7-.04-.26.21-.43.46-.17.26-.34.38t-.41-.29q0 .07-.1.1-.62.62-1.42 1.15-.8.53-1.71.97-.91.45-1.83.77-.92.33-1.78.5h-.03q-.17.24-.34.49-.17.26-.38.5-.48-.34-.55-.93-.07-.58-.2-1.09.31-.65.65-1.03.34-.37.72-.66.37-.29.82-.53.44-.24.95-.62.38.31.6.24.22-.07.38-.29.15-.22.27-.48.12-.25.33-.32.61.31 1.04.08.43-.22.82-.58.39-.36.82-.63.43-.27 1.04-.03l.07.03q.45-.44 1.13-.87.68-.43 1.44-.69.75-.25 1.47-.2.71.05 1.23.56 0 2.64-.5 4.96-.5 2.33-1.76 4.65v.03q-.07.31-.22.62-.16.31-.33.62-.2.41-.34.75t-.22.68q-.09.34-.1.72-.02.38-.02.85-.41.28-.45.81-.03.53-.2.97l.03.04q.31.3.52.32.2.02.36-.15.15-.17.29-.43.13-.26.27-.5h.03q.62-.61 1.34-1.02.72-.41 1.47-.79.75-.37 1.48-.78.74-.41 1.39-1.03.31-.07.61-.03.31.03.45-.31m-15.18 9.19q-.21-.1-1.04.16-.84.26-1.83.61-.99.36-1.88.67-.89.31-1.17.31-.37 0-.58.02-.2.01-.58-.16.04.07.04.22 0 .16.03.23-.07.24-.39.34-.33.1-.5-.17 0-.38.24-.58.24-.21.24-.52-.21.04-.38-.03t-.41.14q-.17.13-.2.42-.04.29-.07.57-.03.27-.14.48-.1.2-.37.2-.28 0-.52-.05-.23-.05-.51-.05-.58-.04-1.14.03-.57.07-1.15.17-.17.04-.38.05-.2.02-.41.09-.06-.17-.22-.38-.15-.2-.42-.2-.14 0-.24.12-.11.12-.19.27-.09.16-.17.29-.09.14-.19.14-.07.03-.31-.29-.24-.33-.31-.39-.27.47-.54.53-.28.05-.86-.16l-3.14-1.19q.61.41 1.21.78.6.38 1.18.75.1.07.19.17.08.11.22.18.34.17.96.3.61.14.99-.03.37-.17.56-.15.19.01.5.32l.24-.34q.13.07.27.2.24-.07.48-.1t.34-.24q.82.62 1.54 1.33.27-.41.36-.46.08-.05.46.33.21-.48.51-.48.31 0 .64.1.32.1.68.12.36.02.67-.46.17-.07.36-.26.18-.18.39-.34.2-.15.39-.15t.36.31q.17-.18.34-.29.17-.12.34-.23.18-.1.59-.19.41-.08.82-.18.41-.11.73-.26.33-.15.33-.43.75-.41 1.55-1.02.81-.62 1.49-1.17m34.84 1.68q-.72 1.54-1.37 2.43-.65.89-1.45 1.48-.81.6-1.93 1.12-1.13.51-2.84 1.3-.69-.18-1.34-.09-.65.09-1.24.12-.6.03-1.15-.12-.55-.15-.99-.84h-.51q.03-.44-.09-.94-.12-.49-.67-.56.35-.38.45-.84.1-.46.15-.94.05-.48.16-.92.1-.45.51-.76-.41-.54-.32-1.11.08-.56.37-1.12.29-.57.62-1.13.32-.57.32-1.15-.31-.2-.56-.56-.26-.36-.7-.19-.93.89-1.85 1.69-.92.81-1.79 1.66-.88.85-1.65 1.79-.77.95-1.41 2.07-.59.11-.89.55-.31.44-.55.94-.24.5-.53.94-.29.45-.8.58-.18.55-.36 1.11-.19.57-.36 1.11-.21-.1-.53-.17-.33-.07-.63-.17-.31-.1-.55-.25-.24-.16-.31-.4-.03-.07-.02-.29.02-.22.02-.29.07-.96.5-1.79.42-.84.9-1.64.48-.81.89-1.63.41-.82.45-1.81.51 0 .66-.31.16-.31.24-.65.09-.34.22-.61.14-.28.62-.21-.31-.41-.26-.9.05-.5.26-1 .2-.49.51-.95.31-.46.52-.84-.04-.48.08-.96t.43-.85q.31-.38.55-.72.23-.34.47-.72.14-.17.23-.37.08-.21.18-.38.31-.45.41-.94.11-.5.23-.99.12-.5.34-.89.22-.39.8-.63 0-.38.12-.7.12-.33.26-.67.13-.34.25-.67.12-.32.12-.7.11-.17.31-.34.21-.17.38-.34t.27-.36q.1-.19.04-.46.03-.45-.02-.93-.05-.48.25-.82-.06-.44.12-.72.19-.27.47-.47.27-.21.59-.4.33-.18.57-.42-.17-.24-.07-.55.1-.31.29-.6.19-.29.43-.56.24-.28.34-.48.21-.41.36-.82t.36-.77q.2-.36.49-.67.29-.31.77-.51-.13-.69.09-1.06.22-.38.61-.65.4-.27.84-.53.45-.26.72-.74.38-.1.82-.22.44-.12.89-.17.44-.05.85.02t.76.37q.13.14.17.17.03.04.03.06 0 .01.02.06.02.06.15.19.14.14.28.26.13.12.27.29.03.24 0 .53-.04.29-.04.56 0 .28.09.52t.43.34q-.28.99-.24 2.12.03 1.13.03 2.27 0 1.15-.17 2.21t-.89 1.88l-.24 1.74q-.44.04-.61.29-.17.26-.24.6-.07.34-.12.72-.05.37-.26.61-.27.35-.54.79-.28.44-.59.82-.3.38-.7.63-.39.26-.9.26-.07.2-.28.48-.2.27-.46.53-.25.25-.53.44-.27.19-.48.26-.27.1-.49.15-.22.05-.5.22-.31.18-.61.45-.31.27-.65.48-.34.2-.72.29-.38.08-.75-.09-.45.55-1.01.67-.57.12-1.1.17-.53.05-.99.24-.46.19-.7.84-.07.07-.12.29-.05.22-.05.29 0 .37-.03.92-.04.55.27.82 1.23-.58 2.34-1.38 1.11-.81 2.38-1.35l.24.27q.1-.75.65-.77.54-.02 1.13.02h.23q.07 0 .12-.02.06-.02.12-.02.65 0 .86.52.2.51.38.99-.38.41-.6.97-.23.57-.41 1.18-.19.62-.41 1.22-.23.59-.6 1.11.31.17.27.37-.03.21-.12.41-.08.21-.05.4.03.18.44.29-.34.24-.46.56-.12.33-.2.69-.09.35-.19.68-.1.32-.41.56.14.31.22.6.09.29.02.67.48.61.97.68.5.07.98-.07l.99-.27q.51-.14 1.06.07.96-.65 1.33-.79.38-.13.6-.2.22-.07.53-.31.31-.24 1.16-1.06.86-.24 1.52-.79.67-.54 1.46-.92m-3.63-27.69-1.47-.24q.04.41-.18.63-.23.22-.5.41-.27.19-.53.38-.26.18-.29.56-.45.21-.58.55-.14.34-.22.7-.09.36-.26.7-.17.34-.68.55l.24.24q-1.13 1.02-1.8 2.42-.67 1.4-1.18 2.81-.48.51-.68 1.14-.21.63-.4 1.27-.18.63-.47 1.19-.3.57-.95.88.35.44.26.82-.08.37-.36.71-.27.35-.56.69-.29.34-.33.75.65.14 1.29-.03.63-.18 1.24-.5.62-.32 1.17-.74.54-.41 1.06-.71l.23.24q1.54-.86 2.55-2.07 1.01-1.22 1.93-2.65-.3-.24-.27-.51.07-.18.17-.42.1-.23.17-.41.34-1.02.51-1.91.45-1.85.64-3.71.19-1.86.25-3.74"></path><path fill="#77d4fc" d="M251.96 100.31q-.31.3-.46.48-.15.17-.27.32-.12.15-.28.32-.15.18-.46.52-.27.27-.51.58-.24.31-.55.55-.41-.11-.63.1-.22.2-.41.46-.19.26-.34.48-.16.22-.4.19-.82.44-1.64.77-.82.32-1.57.94l-.27-.28-3.56 1.71q-.17.07-.34.21-.17.13-.34.24-.76.41-1.56.73-.8.33-1.59.6l-.44.14q.27.68 0 .95-.28.28-.79.4t-1.13.15q-.61.04-.96.24-.41-.07-.83-.05-.43.02-.88.08-.47.07-.88.07-.41 0-.89-.1h-.07q-.58.27-1.01.12-.43-.15-.77-.51t-.63-.86q-.29-.49-.6-.9-.21-.28-.51-.79-.31-.51-.53-1.09-.23-.59-.28-1.18-.05-.6.26-1.05.31-.44.5-.95.18-.52.18-1.2 0-.24-.01-.44-.02-.21-.02-.45.17 0 .38.02.2.02.39 0t.31-.14q.12-.12.12-.43 0-.17-.12-.27t-.16-.2q.21-.31.4-.5.18-.19.32-.38.14-.18.21-.44.06-.26-.04-.7.41-.72.98-1.28.56-.57 1.18-1.06.61-.5 1.26-.98t1.23-1.02q.65.27 1.04 0 .4-.28.7-.6.31-.33.62-.53.31-.21.82.17l.07.07q.92-.93 1.86-.82.94.1 1.61.61.67.51.87 1.18.21.67-.37.91.37.37.37.89 0 .51-.27.89-.31.41-.53.83-.22.43-.46.91-.35.79-.76 1.49-.41.7-1.16 1.18-.61-.18-.84.13-.22.31-.32.67-.1.36-.24.56-.14.21-.58-.13l-.07-.07-.07.07q-.27.27-.43.61-.15.34-.42.51-.31-.1-.65-.17-.34-.06-.65-.13 0 .72-.28 1.13-.27.41-.7.66-.42.26-.97.41-.55.16-1.08.38t-.99.55q-.46.32-.73.9.34.38.85.43.51.05 1.06 0t1.08-.05q.53 0 .94.27l.03.04.04-.04q.82-.1 1.59-.39.76-.29 1.5-.62.74-.32 1.5-.61.77-.29 1.59-.43.18.27.47.31.29.03.56-.04l.03-.07q.07-.23.14-.42.07-.19.21-.43.24-.38.58-.58.34-.21.73-.31.4-.1.84-.14.44-.03.89-.1h.07l.03-.1q.14-.41.36-.56.22-.16.48-.23t.55-.1q.29-.03.56-.2.62.2 1.03-.14.41-.34.78-.72l.28.34.1-.13q.51-.48.77-.72.25-.24.49-.43t.57-.38q.32-.18.9-.56.48-.31.94-.62.47-.3.91-.68.17.07.17.26v.36q-.03.06-.05.2-.02.14.05.21m-14.15-4.28q-.04-.03-.06-.03-.01 0-.05-.04-.71-.37-1.19-.35-.48.01-.87.27-.4.26-.72.65-.33.39-.69.72-.36.32-.83.49-.48.17-1.17-.03-.1.55-.18 1.08-.09.53-.12 1.07-.59.21-.91.58-.33.38-.55.82-.22.45-.41.94-.19.5-.49.94l.13.18q.14-.07.31.1l.24.24q.38-.55 1.01-.93.63-.37 1.3-.7.66-.32 1.28-.7.62-.37.92-.99 1.1-.31 1.64-1.23.55-.92.93-1.91.07-.21.25-.6.19-.4.23-.57M165.503 497.076q-.058.643-.372 1.07-.314.428-.758.769-.43.349-.894.693-.45.353-.745.828l-.243-.198-.06.053q-.44.259-.643.471t-.376.736q-.174.522-.384.645-.199.13-.776.201-.363.071-.615.242-.242.17-.442.402t-.373.49q-.174.258-.451.455-.294-.045-.612-.004-.328.044-.606.026-.133.21-.32.399-.188.189-.332.39-.152-.103-.304-.043-.14.068-.295.16-.124.095-.204.1-.092-.002-.254.06-.381.186-.457.425-.076.239-.04.527.046.287.097.552.054.275-.128.443l-.03.005.008.04q-.105.713-.53 1.407t-.738 1.396q-.322.704-.292 1.381.03.677.824 1.358l.006.03.03-.007q.647.292.961.914.315.621.606 1.227l.045.022q.69.354 1.288.758.608.401 1.221.883.904.72 1.768 1.235.874.513 2.044.662-.005.287.056.55.071.261.095.542-.389.147-.76.127-.368-.01-.725-.063-.366-.05-.727-.123-.36-.073-.768-.024-.877-.736-1.826-1.214-.938-.48-1.933-1.091-.223-.62-.572-1-.358-.378-.86-.81-.205-.164-.406-.41-.208-.235-.445-.403-.238-.127-.588-.405-.35-.279-.4-.544-.06-.304-.047-.602t-.045-.602q-.084-.432-.34-.647-.246-.217-.652-.312l-.074-.016-.024.035q-.406.426-.53.837-.133.413-.266.989-.105.51-.238.922-.126.402-.365.692t-.644.41q-.396.109-1.004.023l-.059.011-.288.403q-.154.203-.328.41-.324-.253-.708-.077-.381.187-.69.38l.008.038q-.128.443-.554.556-.435.125-.994.183-.57.05-1.146.131t-1.002.399q-.31-.174-.568-.144-.25.028-.487.166-.24.128-.479.317t-.507.272q-.403-.136-1.105-.234-.704-.108-1.45-.227-.756-.118-1.417-.265-.65-.149-.939-.378l-.04.008q-.735.143-1.258.02-.533-.12-1.218-.445-.493-.18-.908-.323-.405-.145-.98-.217l-.074-.016q-.102.366-.294.27-.193-.104-.469-.264.135-.2.112-.42-.022-.22-.062-.425-.473-.285-.818-.33-.333-.038-.633-.06-.312-.032-.564-.125-.26-.082-.582-.478l-.04.007q-.525-.03-.762-.463-.245-.42-.435-.873-.187-.442-.505-.818-.318-.377-1.014-.343-.37-.488-.83-.97-.462-.49-.766-1.002-.313-.51-.386-1.096-.081-.575.28-1.236.448-.363 1.014-.177.556.187 1.129.616t1.085.92q.513.49.922.656l.04-.008q.925.095 1.894.365.977.259 1.813.626.268.121.489.21.233.098.461.227.04-.008.077.025l.06-.052q.456-.333.868-.362.412-.03.786.06.362.083.707.18.352.084.702-.056.438.261.839.173.398-.097.762-.27.372-.184.733-.265.37-.092.762.148l.006.029q.893-.072 1.456-.212t1.07-.941l.29.229q.326-.308.745-.46.428-.156.874-.273.444-.127.85-.348.416-.214.701-.687.21.133.44.118.244-.006.45-.046.056-.082.1-.111.046-.03.064-.094.176.17.343.137.166-.033.338-.147.169-.125.313-.275l.229-.238q.252.195.442.179.18-.015.35-.14l.36-.243q.18-.126.399-.098l.037.034 1.236-.454q-.311-.5-.447-1.197-.137-.707.248-1.24-.006-.03-.12-.2-.125-.17-.238-.332-.124-.169-.224-.313-.097-.134-.103-.163.016-.288-.004-.6-.028-.3-.013-.589-.018-.617-.09-1.245-.072-.638-.157-1.284-.12-.985-.32-1.904-.198-.919-.318-1.904-.066-.548.102-1.202.167-.664.355-1.373.196-.72.32-1.498.126-.768-.025-1.544.168-.236.37-.449.204-.212.354-.435.14-.221.18-.493.03-.261-.135-.586.771-.7 1.246-1.403.474-.703.619-1.74.612-.048.997-.214.397-.16.89-.296.684.845 1.49 1.738.793.885 1.132 1.899-.248.19-.198.497.037.298.09.573l-.015.075q.633.427 1.134.859-.702.686-.747 1.5-.057.806.731 1.457.056.652-.02 1.308-.085.668-.127 1.339l-.293 5.1q.194.104.164.477-.039.374-.157.815-.128.442-.295.842-.167.399-.24.545l.17.14 1.247-1.026q.642-.522 1.284-.993.795-.573 1.583-1.184.79-.602 1.445-1.32.461.226.637.029.168-.186.308-.457.141-.272.368-.47.215-.204.75.038.034-.037.02-.106.227-.777.921-.871.693-.104 1.318.019m-12.234-7.545q-.276-.16-.366-.52-.082-.37-.2-.714-.128-.342-.375-.569-.258-.225-.896-.101l-.018.065q-.166.562-.402 1.443-.227.88-.434 1.806-.197.924-.307 1.771-.122.839-.025 1.34.346.523.225 1.158t-.305 1.312q-.174.676-.2 1.384-.017.696.528 1.354-.424.856-.314 1.528.11.671.45 1.318.332.659.72 1.296t.532 1.374q.704-.31.993-.712.286-.413.353-.853.075-.453.013-.93-.062-.477-.034-.91.016-.441.183-.84.167-.4.664-.67-.282-.403-.273-1.25.006-.857.059-1.846.052-.988.04-1.943-.013-.955-.304-1.56.141-.69.083-1.198-.068-.507-.197-1.174-.054-.275-.089-.717-.027-.453-.104-.642m-3.593 19.3q-.272.227-.613.466-.33.238-.71.434-.38.196-.782.274t-.747-.069q.177.913-.127 1.074-.295.16-.813.117-.506-.034-1.063-.017-.555.026-.847.674-.508.058-1.025.332-.527.275-1.06.47-.542.198-1.044.183-.51-.003-.978-.472l-.076.188q-.229.605-.663.78-.436.167-.947.215-.52.05-1.006.114-.499.057-.803.432-.458.16-.873.016-.416-.153-.894-.305l-.14.17-.04.008q.026-.076.082-.158-.114-.009-.343-.036-.23-.026-.38-.068-.285-.047-.559-.096-.264-.05-.54.003-.362.071-.858-.118-.483-.181-.833-.358-.229-.128-.51-.216-.28-.078-.56-.095l-.104.193q.284.363.575.55.301.187.605.331.314.153.655.28.329.12.657.341.278.537.895.672.619.145 1.376.16.745.008 1.51.013.766.013 1.347.277.345.147.76.138l.828-.039q.412-.029.765.004.353.034.585.335l.646-.085q.021-.045.016-.074.275-.573.756-.616.48-.042.99.011.522.062 1.009-.053.477-.113.72-.853.43.06.894-.225t.91-.615q.434-.329.795-.572.35-.241.583-.144.032-.149.33-.502t.377-.47q.432-.502.618-.803.186-.301.286-.575.098-.284.15-.64.053-.358.218-.98"></path><path fill="#77d4fc" d="M183.269 508.598q.117.394-.01.633-.128.229-.392.392-.275.155-.6.27-.324.113-.533.297-.99.09-1.93.08-.949-.01-1.789-.244-.852-.242-1.594-.76-.743-.517-1.373-1.403.304-.793 0-1.62-.303-.827-.577-1.61t-.247-1.48q.016-.706.948-1.305-.139-.35-.146-.806.004-.45-.389-.689-1.1.632-1.83 1.538t-1.346 1.932q-.616 1.026-1.237 2.074-.614 1.036-1.424 1.897-.427.113-.933.13-.498.005-.769.445.085.228.255.368.16.142.28.292.112.151.148.338.036.186-.153.468-.27.398-.61.689-.341.29-.645.614-.305.314-.474.704-.171.38-.06.948-.226-.058-.383.024t-.278.247q-.132.159-.227.35-.103.204-.222.329-.026.178.095.277.121.098.283.2-.065.399-.263.53-.201.12-.47.1t-.542-.118q-.284-.098-.501-.167-.192-.411-.332-.975-.15-.562-.19-1.135-.039-.563.07-1.103.097-.549.435-.96l.144-.151.037-.018.026-.025q.026-.025.114-.144.206-.356.236-.729.04-.374.027-.749-.003-.386.046-.762t.302-.7q-.243-.514-.168-.967.067-.44.246-.883.171-.43.352-.863.179-.442.148-.915.007-.174-.043-.328-.048-.143-.08-.31-.165-.528-.043-.847.13-.321.38-.563t.533-.501q.274-.268.432-.716 1.063.282 1.402 1.031.341.76.462 1.745-.5.473-.676 1.19-.166.715-.158 1.335.109.193.23.19.12-.014.258-.091.148-.08.262-.173.124-.096.261-.123 1.045-1.069 2.031-2.34.995-1.273 1.401-2.748.88-.66 1.634-1.448.754-.789 1.735-1.295l.625-.926q.22.242.425.04.207-.194.402-.446.188-.24.406-.323.21-.072.504.39.514.808.497 1.667-.007.857-.207 1.71-.191.853-.406 1.74-.216.878-.113 1.723l.082.422q.042.216.048.46.07.72.112 1.567.04.838.378 1.475.283.566.915.933.621.368 1.115.76.228-.084.477-.061t.479.05q.239.024.431-.034.203-.06.36-.294.217-.144.454-.078.249.074.48.213.238.126.477.202.239.076.483-.083M210.04 497.057q-.41 1.822-.83 2.861-.43 1.041-1.027 1.789-.61.74-1.452 1.443-.831.702-2.032 1.913-.564.14-1.187.496-.626.346-1.026.8-1.03.099-1.93-.073-.909-.17-1.79-.772-.2-.135-.375-.304-.177-.18-.377-.314-.447-.362-.61-.676-.175-.323-.346-.84-.279-.75-.619-1.03-.33-.283-.975.535l-.346-.207-.056.082q-.258.294-.412.498-.154.203-.295.424-.152.212-.279.451-.128.229-.305.579-.305.579-.69 1.214-.377.633-.977.954-.087.129-.14.22-.042.1-.203.162-.193.11-.477.063-.296-.055-.495-.19-.363.071-.612.313-.258.244-.448.576-.2.334-.357.68-.157.347-.393.597-.568-.094-.995.122-.435.227-.844.429-.409.201-.854.268-.436.064-.975-.35-.391-.964-.693-1.781-.275-.68-.497-1.3-.222-.618-.247-.746.135-.2.06-.48-.075-.281-.174-.476-.075-.016-.082-.055-.006-.03-.082-.055.142-.16.19-.384.04-.211.18-.381-.15-.246-.353-.563-.193-.309-.258-.643.047-.284.118-.338.083-.047.373-.175-.071-.16-.149-.297-.08-.147-.083-.32-.064-.334.043-.62.1-.274.217-.561t.197-.609q.079-.331 0-.734l-.032-.166q.5-.098.612-.415.112-.317.078-.698-.043-.378-.113-.742-.073-.373.1-.58.102-.162.223-.165.122-.003.289-.036.16-.275.206-.407.046-.13-.127-.443.236-.046.352-.18.118-.126.164-.308.056-.184.102-.366.056-.184.157-.346-.162-.835.213-1.264.367-.418.885-.743.507-.322 1.008-.736.49-.41.607-1.228.493.18.755-.096.253-.273.478-.582.215-.306.534-.45.316-.153.932.288.072-.677.683-.836.622-.152 1.182.055l.006.03.03-.006q.56.003.905.364.357.369.645.853.278.486.6.942.316.469.776.685.026-.912.037-1.851t.287-1.828q.375.304.662.003l-.04-.053q-.105-.54.025-1.024.132-.474.275-.94.136-.454.096-.925-.039-.46-.513-.96.537-.277.69-.796.164-.52.205-1.1.048-.59.114-1.193.076-.605.4-1.086-.019-.098-.048-.195-.04-.104-.06-.202-.021-.27.105-.51.139-.23.295-.474.168-.237.266-.52t-.003-.642q.248-.506.374-1.274.134-.78.314-1.477.17-.696.512-1.088.34-.402 1.05-.153.215.375.249.705.022.322-.247.72.236.168.37.275.093 1.062.009 2.148-.086 1.076-.162 2.1l.164.11q.082.055.154.113-.413.915-.61 1.789t-.28 1.857q-.026.393-.036.812 0 .418-.073.778-.102.367-.261.805-.161.429-.256.834-.224.838-.354 1.689-.132.84-.24 1.697-.146 1.037-.316 2.048-.17 1.01-.495 2.011l.105.54q.031.37-.135.566-.177.187-.4.353-.232.167-.426.429-.193.262-.192.791l.006.03.037.033q.477.672.42 1.324-.066.655-.187 1.29t-.1 1.221q.033.585.691 1.088.09.675.47 1 .38.333.834.52t.91.332q.464.134.735.428.27-.4.616-.66.356-.263.72-.435.364-.173.73-.336.377-.155.713-.363.828-.405 1.107-.806.269-.398.248-.506-.06-.467.237-.668.287-.198.7-.33.412-.13.805-.309.401-.19.53-.632.37-.032.6-.372.229-.34.405-.69.177-.35.374-.592.196-.252.507-.068m-14.85-2.237.054-.245q-.618-.298-.896-.784-.288-.484-.51-1t-.503-.963q-.282-.454-.877-.685l-.076-.026q-.04.008-.36.142t-.383.176q.31.184.414.347.1.154.084.33t-.098.386q-.084.2-.099.488-.055.082-.274.002-.23-.077-.341-.127-.334.798-1.146 1.18-.812.382-1.547.74.1.153.194.267.096.124.197.277-.881.865-1.146 1.914-.266 1.04-.42 2.14-.154 1.09-.46 2.137-.294 1.055-1.175 1.92.22.242.34.493.12.252.51.319.18.352.236.739.054.386.058.773.012.374.069.77.054.387.23.77l.083.056q1.11.161 1.643-.248.53-.419.89-.978.36-.559.821-1.066.462-.507 1.474-.49l.097-.233q-.101-.154-.167-.283-.054-.122-.087-.29-.043-.378.082-.626.125-.249.346-.577.184-.31.341-.657.157-.346.298-.72.137-.343.37-.612.223-.267.688-.185l.168-2.538q.007-.175.265-.368.258-.192.442-.401.183-.21.18-.484.008-.276-.52-.632.043-.15.034-.353-.001-.214.035-.394.027-.178.116-.297.079-.118.326-.104"></path><path fill="#77d4fc" d="m234.03 495.95-2.486 2.775q-.403.078-.615.14-.212.061-.383.125-.16.072-.337.208-.187.138-.48.41-.067.39-.247.618-.18.228-.441.401-.262.173-.544.35t-.494.494q-2.474.898-4.718-.265-.268-.121-.494-.29-.225-.161-.493-.282-.194-.105-.2-.084-.017.014-.187-.126-.3-.288-.443-.76-.145-.48-.33-.913-.187-.433-.544-.7-.346-.258-1.037-.093-.206.773-.685 1.61-.478.847-1.142 1.567-.655.718-1.447 1.259-.783.53-1.549.678-.124.829-.697 1.338-.582.52-1.28.86-.06.052-.257.141-.187.088-.226.095-.456.12-.77-.024-.304-.154-.586-.344-.281-.19-.584-.335-.315-.152-.786-.06-.531-.794-1.069-1.566-.525-.763-.862-1.605.262-.224.232-.483t-.081-.524q-.572-.062-.642-.313-.057-.244.007-.541.066-.288.135-.567.06-.266-.2-.399-.132-2.093.399-4.183.54-2.091 1.962-3.692-.32-.6-.072-.995.26-.396.703-.523.446-.118.918.056.47.163.575.703.075.23.052.479l-.044.456q-.01 1.052-.229 2.072-.22 1.01-.514 2.015-.296.995-.602 1.992-.313 1.008-.458 2.045-.35.343-.154.62.187.28.468.52.271.244.332.507.073.27-.52.62-.105.51.258.806.373.294.651.627.271-.022.52-.1.238-.088.354-.385.454.186.745-.043.282-.228.586-.552.305-.314.695-.563.39-.25.971-.087.19-.282.282-.646.083-.362.19-.699t.325-.583q.215-.255.69-.276.307-.936.976-1.637.668-.7 1.354-1.363.688-.653 1.206-1.345.508-.69.5-1.625.44-1.135.854-2.52.404-1.382 1.113-2.396.047-.284.252-.487.207-.193.472-.295.256-.101.536-.074.292.035.527.193.187.595.068 1.138-.119.543-.279 1.083t-.184 1.095q-.032.567.34 1.228-.42.357-.83.65-.414.285-.76.596-.338.31-.55.739-.214.418-.194 1.046.968.158 1.232.626.266.478.379 1.058.114.589.323 1.19.2.613 1.092 1.06.157.072.218.122.058.04.238.076.353.033.595-.137.252-.17.479-.317.234-.157.522-.193.289-.036.74.294.377-.735.942-.183.26-.814.573-.987.314-.163.636-.185.33-.033.644-.197.313-.172.572-.987l.364.245q.101-.58.39-.615.288-.036.568-.009.283.037.472-.092.18-.116.043-.823.305-.06.494-.239.2-.171.382-.39.184-.209.426-.378.252-.171.615-.242z"></path><path fill="#77d4fc" d="M254.605 487.284q.035 1.073-.094 1.669-.128.595-.413 1.017t-.752.85q-.479.418-1.097 1.17-.236.25-.43.46-.203.213-.393.495-.637.338-1.52.978-.885.64-1.818 1.29-.941.662-1.799 1.175t-1.44.555q-.145.304-.642.471-.488.166-.753.218-.441.086-.88.242t-.707.555l-.07.106q-.009.012.001.01.02-.004.004.02-.006.021-.056.132-.289.505-.664.619-.377.103-.779.029-.403-.085-.83-.236-.429-.161-.844-.203-.406-.043-.793.114-.385.166-.696.716-.354-.563-.874-.564-.53 0-1.054.082t-1 .093q-.489.003-.76-.504l-.006-.03-.825-.47-.077.126q-.135.2-.205.417-.058.225-.163.419-.187.454-.416.896-.228.451-.556.81-.327.36-.74.593-.404.23-.916.27-.156-.806.164-1.57.321-.756.616-1.496.284-.738.268-1.448-.016-.71-.832-1.346-.12-.465-.601-.84-.473-.387-.894-.774-.422-.386-.565-.807-.135-.432.42-.988-.318-.01-.449-.157-.032-.167.02-.371l.078-.382q.207-.04.405-.17.201-.12.378-.206t.334-.065q.156.02.345.259.139.187.253.409.115.222.259.439.404.614.921 1.125.517.51 1.115.914l.117.079q-.005-.03.105-.194t.25-.344.248-.344q.101-.162.157-.244.331-.441.64-.848.296-.414.514-.813.216-.408.285-.89.058-.49-.059-1.09.903-.908 1.748-1.959.836-1.048 1.72-2.056t1.889-1.864q.995-.856 2.264-1.347.398.473.86.699.461.226.913.454.44.22.85.599.398.37.686 1.12.546 1.39.538 2.716.003 1.324-.201 2.79-.109.857-.17 1.745-.054.876.116 1.75l.249.023q.226-.462.588-.644.373-.175.77-.283.395-.117.762-.27.366-.163.563-.619.464.083.818-.138.364-.224.674-.57.322-.337.626-.712.313-.377.697-.553l-.081-.26q.52-.518.93-.771.4-.25.738-.5.33-.238.646-.605.314-.376.638-1.173.154-.1.383-.125.22-.023.35.125m-12.358-1.051q-.18-.036-.376-.05-.196-.012-.382-.078-.345-.147-.629-.193-.284-.047-.624.192l.013.07-.03.005q-1.464 1.64-2.613 3.482-1.16 1.846-2.483 3.63l-.361-.234q-.179.34-.132.687.055.336.115.64.057.295.042.583-.018.278-.306.579l-.084.088q.219.446.497.514.268.07.559-.007.28-.075.54-.156.257-.09.451.015.121.047.178.18.054.12.075.229l.353-.069q.187-.036.385-.115.35-.14.782-.173.433-.023.592.425.616-.395 1.263-.836.65-.432.95-1.193l.281.19q.03-.006.046-.03.017-.013.047-.02.745-.674 1.037-1.739.302-1.067.316-2.252t-.16-2.342q-.172-1.148-.342-2.022"></path><path fill="#77d4fc" d="M272.301 467.371q-.374.593-.94.723-.577.122-1.145.13-.57.01-1.087.12-.517.121-.785.734-.567-.033-1.119.166-.554.19-1.132.465-.57.263-1.152.52-.574.243-1.188.332l-.68-.459q-.165.41-.56.578-.405.17-.861-.026-.615.608-1.328.716-.714.098-1.384.218-.671.11-1.205.51-.533.399-.72 1.586-.156.825-.266 1.672-.122.838-.237 1.665-.345 2.156-.719 4.266t-.945 4.207q.226 1.525.663 3.04.437 1.514.897 2.994-.059.429.074.851.145.43.396.83.253.41.563.746.31.337.634.59l.488-.686 1.073 1.014q.248-.506.606-1.075.356-.579.785-1.1.42-.51.914-.901.505-.394 1.053-.612.19-.282.335-.585.154-.305.353-.537.2-.233.467-.376.27-.134.699-.075.952-.817 1.616-1.903.655-1.085 1.32-2.172.655-1.085 1.427-2.04.774-.945 1.962-1.492-.427 2.1-1.317 4.179-.882 2.066-2.153 3.81-.31.55-.839 1.03-.23.227-.5.463-.268.246-.501.464-.795.786-1.496 1.636-.71.851-1.314 1.834-.146-.175-.326-.211-.18-.037-.396.005t-.424.124q-.22.073-.393.076-.549.585-1.512 1.078-.966.483-1.803.473-.249-.023-.688-.131-.438-.109-.671-.206-1.474-.61-2.383-1.778-.9-1.17-1.268-2.698l-.327-.211q.364-.488.403-.914.04-.425-.091-.838-.141-.41-.337-.841-.206-.429-.336-.892-.089-.299-.078-.505.009-.215.026-.494.055-1.131.092-2.198t.1-2.158q.182-2.684.578-5.36.41-2.666.904-5.31-.58-.1-1.12-.046-.55.055-1.099.162-.56.11-1.115.186-.567.07-1.135-.023-.255-.053-.259-.072-.003-.02-.278.033-.167.033-.462.141-.285.106-.59.166t-.56.048q-.269-.02-.354-.247l-.065-.334q-.066-.548.094-.772.17-.227.465-.335.285-.107.654-.199.371-.082.665-.353.983.023 1.832-.06.862-.076 1.626-.337.766-.25 1.457-.732.691-.48 1.296-1.3.337-1.146.371-2.385.044-1.242.173-2.469.128-1.227.504-2.329t1.415-1.996q.527-.174.968-.056.442.128.89.285-.075.504-.076 1.024t-.02 1.053q-.02.523-.095 1.027-.085.505-.34.973.474.08.588.303.105.224.029.514-.086.292-.223.634-.147.344-.131.586-.367.102-.537.593-.161.48-.39.769-.155.62.297.95.441.332.818.646.323.04.61-.108.28-.136.516-.284.234-.157.47-.203.225-.044.485.19.261-.437.605-.453.353-.018.71.035.356.053.688-.021.33-.085.537-.645.362-.284.735-.255.374.04.707.128.323.09.625.123.312.03.566-.233.524-.03 1.135-.19.612-.15 1.212-.368.607-.23 1.197-.497.59-.268 1.07-.473.569.205.713.422.144.216.14.461t-.036.547q-.023.3.2.715"></path><path fill="#77d4fc" d="M291.764 481.864q-.703.524-.863 1.115-.171.584-.206 1.191-.037.598-.161 1.163-.115.562-.757 1.033-.05.631-.486.96-.445.331-.948.623-.494.29-.857.676-.365.376-.22 1.122-.597.493-1.323.95-.736.459-1.561.772-.824.323-1.676.448-.84.133-1.635-.028-.557-.137-1.09-.42-.202-.093-.366-.153-.163-.05-.362-.184-.48-.325-.86-.811-.37-.488-.654-1.055-.285-.576-.51-1.154-.216-.59-.39-1.116l.595-3.6q-1.121-.576-1.93-1.489-.797-.904-1.84-1.608-.122.268-.364.488-.233.219-.092.579l.393.239q-.874 1.423-1.698 3.162-.83 1.75-1.17 3.416-.741.114-.971.556-.23.442-.33.97-.112.531-.328.991-.226.462-.946.53-.096.396-.181.85-.085.455-.248.874-.165.409-.45.73-.295.311-.796.409-.316-.214-.415-.51-.086-.29-.051-.632.037-.334.15-.692.106-.346.106-.662.086-1.025.638-1.958.545-.92 1.099-1.843.552-.933.883-1.904.342-.963.005-2.12.434-.125.857-.36t.757-.565q.343-.331.484-.756.142-.425-.032-.951-.292-.086-.369-.326-.089-.248-.101-.52.69-.379 1.027-1.056.338-.676.58-1.416.232-.748.452-1.504t.692-1.367q.523.173 1.03.268t.999.315q-.226.462-.215.837.004.386.078.769l.147.756q.073.373-.055.815.632.366 1.129.932.487.567 1.14.889.343-.383.852-.492.497-.117 1.02-.198.523-.092.979-.262.454-.18.657-.708.164.11.429.06l.54-.106q.275-.053.488-.003.222.038.297.268.08.26.053.377-.03.108-.053.357-.017.278.022.27.03-.005-.023.25-.081.474-.407.842-.333.381-.66.74t-.583.776q-.246.414-.14.954-.695.41-.889.988-.203.579-.173 1.256.018.669.122 1.361.106.703.01 1.313l.37.274.2-.385q.6.576 1.29.615.681.04 1.375-.165.236-.566.638-.96.395-.382.875-.69.482-.297.997-.58.527-.276.982-.609.364-.274.603-.565t.514-.66l1.644-2.235q.806-1.094 1.634-2.233.196-.038.305.155.107.183.156.438t.078.504q.04.257.064.385"></path><path fill="#77d4fc" d="M310.534 484.349q.223.099.213.203-.02.105-.117.236-.099.121-.256.203-.158.081-.248.14l-.973.393q-1.225.513-2.268 1.225t-2.132 1.402q-.16-.142-.397-.157-.23-.026-.358.202.059.09.099.297.078.402.088.665.018.251-.03.475-.04.211-.17.43-.141.221-.355.538-.269.398.163.314-.176.35-.434.441-.063.043-.19.068-.069.013-.132.056-.026.076.126.281.14.197.183.26.006.03-.066.186-.073.147-.14.323-.08.168-.108.337-.04.16.047.245l.054.275q.178.026.03.106-.135.087-.175.095-.029.006-.167.185t-.13.22q-.056.081-.143.108-.074.035-.16.123-.038.008-.065.135-.026.127-.029.27-.014.136-.017.279-.012.145.033.167.084.432.054.753-.019.32-.043.773-.023.564-.236.83-.211.275-.442.504-.229.238-.438.523t-.232.85q-.015.135-.023.249-.028.066-.007.174l.013.069q-.081.26-.141.425-.05.162-.092.313-.042.15-.04.323-.006.175.04.41.088.085.079.301-.011.206-.08.433-.06.215-.137.444-.08.22-.13.331-.065.186-.158.388l-.21.387q-.518 1.109-.796 2.141-.434 1.541-1.197 3.014-.15.274-.354.588-.202.325-.278.615l.046.235q.13.668-.177 1.084-.308.406-.779.813-.142.16-.322.338-.17.175-.268.398-.155.306-.42.775-.274.48-.545.707-.07.013-.45.046-.369.042-.437.055-.063.043-.192.17-.136.138-.284.269-.147.13-.3.231t-.191.068q-.226-.058-.363-.031-.059.011-.13.117-.073.095-.119.175-.288-.015-.416.01-.068.013-.25-.084-.174-.109-.358-.266-.193-.156-.343-.3-.15-.144-.193-.207-.306-.318-.435-.823-.137-.493-.194-1.052-.06-.569-.055-1.12-.007-.559.013-.98.037-.7.04-1.424.003-.714-.127-1.381-.032-.167.008-.277.047-.121.097-.233.055-.082.01-.155l-.099-.143q-.058-.09-.01-.416.042-.314.12-.696.089-.384.173-.736.086-.343.136-.454.44-1.35.73-2.791.289-1.452.955-2.692.392-.707.774-1.413.384-.697.726-1.456.143-.313.253-.477.155-.305.525-.55.37-.245.747-.247.039-.008.284-.27.246-.25.268-.296.053-.458.262-1.008.201-.539.433-.97.16-.276.475-.44.315-.162.677-.345.373-.174.708-.392.342-.23.576-.652.182-.32.494-.758.31-.448.659-.648.345-.006.902-.287.556-.282.693-.624.121-.268.018-.798-.053-.275.094-.721.138-.445.237-.668.116-.297.16-.591.047-.284.092-.578.036-.18.047-.335l-.002-.326q.031-.047.091-.262.058-.226.138-.445.078-.229.13-.433.042-.201.007-.225-.006-.03-.21-.03-.212.01-.431.032-.22.023-.428.053-.2.019-.24.026-.137.027-.363.173-.237.147-.494.34-.258.193-.426.378-.176.198-.194.262-1.007.583-2.071.82-1.072.25-2.064.86-.592.36-1.325.624-.733.265-1.448.363-.03.006-.206-.01t-.4-.066l-.391-.076q-.18-.036-.22-.029-.18-.036-.362-.184-.193-.156-.353-.35-.161-.202-.301-.399t-.236-.32q-.237-.332-.428-.682-.19-.35-.33-.7-.029.006-.082-.269-.025-.128-.083-.218-.305-.888-.58-1.986-.263-1.09.091-1.994.082-.26.194-.577.11-.327.248-.558.095-.192.184-.31.077-.128.172-.32.026-.076.109-.174.081-.107.075-.137.3-.445.527-.907.226-.461.413-.915.05-.112.148-.284.107-.184.226-.36.126-.187.278-.298.15-.12.3-.079l.315-.06q.157-.031.331-.025.219.233.33.385.12.15.176.332.046.185.078.403.023.22.082.524-.14.17-.322.337-.17.176-.349.353-.057.072-.132.474t-.144.884q-.06.48-.095.925-.038.435-.056.55-.026.913-.347 1.882-.313.957-.798 1.713l-.008.114q.281.19.51.37.218.181.464.347.403-.078.755-.258.193.105.397.208.211.091.381.231l.785-.153q.354-.068.672-.16.308-.091.621-.264.325-.165.642-.471.124-.096.353-.334.23-.228.407-.262l1.168-.441q.267-.195.527-.429.249-.241.481-.46.148-.13.347-.26t.364-.224q.949-.674 1.544-1.594.605-.923 1.262-1.845.52-.732.956-1.632.436-.9.658-1.748.125-.615.305-1.261.19-.648.471-1.192.208-.346.669-.65.47-.305.861-.442.252-.12.535.08.285.209.331.444.154.633.169 1.078.027.453-.071.839-.108.388-.305.793-.198.395-.501.983l-.581 1.152q-.016.075.04.104.055.02.098.083.053.061.042.216 0 .153-.03.373-.03.21-.064.4-.027.178-.06.215-.03.006-.052.102-.014.084-.07.166l-.097.233q-.308.722-.472 1.396t.055 1.435q.057.295-.054.561-.102.264-.258.56-.147.293-.288.667-.132.372-.09.954-.002.144.017.242.013.068 0 .102-.013.043-.007.072l.013.069q-.037.7-.138 1.229-.112.52-.246 1.25.03-.006.184-.21t.367-.417q.22-.226.48-.41.259-.192.543-.145.22.028.48-.043.273-.063.505-.18.242-.118.4-.2.157-.08.196-.088l.57-.111q.265-.052.535-.074.047.032.234-.004.176-.035.437-.055.263-.01.514-.028.261-.02.412.022m-9.253 6.535q-.079.117-.289.454-.217.347-.476.693-.269.348-.539.584-.258.243-.409.201l-.238.19q-.311.233-.35.556-.04.324-.063.675-.013.349-.072.676-.059.327-.4.567-.471-.123-.677-.185t-.327-.007q-.13.066-.255.314-.125.249-.443.759-.733 1.263-1.479 2.508-.758 1.237-1.52 2.506-.105.713-.321 1.489-.216.775-.45 1.513-.265.785-.394 1.748-.129.962-.157 1.966-.031.994 0 1.996.044 1.01.108 1.864.043.063.245.003.195-.048.4-.149.206-.09.402-.18t.25-.13q.04-.007.14-.17.11-.164.235-.361.115-.196.204-.366.088-.18.082-.21.114-.093.431-.297.309-.193.446-.22.06-.01.026-.29-.032-.268-.046-.337l-.11-.57q-.082-.055-.122-.363-.047-.296-.06-.365.34-.24.66-.475.32-.245.645-.512.049-.325.115-.664.075-.351.182-.688.422-1.396.784-2.78.365-1.375.882-2.8.386-1.053.722-2.106.335-1.054.713-2.146.028-.067.106-.296.08-.219.187-.454.119-.226.235-.412.119-.176.227-.197.167-.032.147-.293-.009-.253-.03-.361-.025-.128.07-.584.104-.459.233-.952.138-.496.242-.903.116-.4.108-.439"></path><path fill="#76d4fc" d="m256.465 354.617 8.698-3.993q4.437-.862 5.3 3.575 1.113 7.25-4.842 14.296-5.955 7.046-14.809 8.767-8.864 1.723-15.783-5.836-9.902-11.002-22.789-41.82-6.057-14.918-12.146-24.074-6.986 3.945-15.29 5.56t-15.21-.63q-6.897-2.256-7.867-7.242-1.925-12.839 18.012-16.714 9.689-1.883 22.43 4.544 14.63-16.342 10.11-39.597-2.69-13.84-10.023-23.469-7.333-9.638-17.098-14.066-19.196-8.615-39.958-4.58.634 6.193 1.833 19.754 2.613 28.22 5.013 43.553l7.676 43.892q9.794 50.387-10.143 54.262-12.732 2.475-14.83-8.323-.539-2.768 1.91-10.14 2.438-7.371 2.412-16.412-.035-9.04-6.361-51.91-6.317-42.873-7.733-67.872-13.868 7.005-21.467 17.386-7.609 10.382-5.348 22.015 1.29 6.635-.972 11.242t-6.7 5.469q-8.02 1.559-9.688-7.02-3.766-19.378 9.423-35.012 13.19-15.634 35.093-25.637 1.93-19.63 11.894-21.566 3.877-.753 5.6 8.11.376 1.934.786 7.03 2.944-1.153 11.523-2.82t19.862-1.274q11.283.394 23.375 4.217 12.083 3.835 21.068 14.578 8.987 10.753 12.109 26.812 3.12 16.05-2.495 31.505-5.614 15.455-17.29 26.344 11.674 9.802 20.355 25.636 8.68 15.835 15.132 23.923 6.46 8.075 9.228 7.537m-84.035-56.92q.431 2.218 4.631 3.123 4.2.905 8.49.071t7.613-2.916q-6.774-5.295-13.97-3.896-7.195 1.399-6.764 3.617"></path><path fill="#76d4fc" d="m354.308 333.296 7.31-2.277q2.219-.431 2.648 1.777.754 3.878-4.13 6.844-4.886 2.957-11.531 4.249-12.457 2.42-22.836-5.902t-30.55-32.273q-4.722-5.113-5.313-8.156-.807-4.153 9.739-11.948 16.944-13.349 14.092-28.024-.807-4.152-4.278-6.493t-8.182-1.425q-6.646 1.292-12.735 18.704-6.098 17.423-6.614 31.745-.52 14.312 2.55 30.096 1.505 7.745-2.932 8.608-6.361 1.236-12.522.57-6.17-.665-6.735-3.57t-2.893-26.73q-2.329-23.823-4.046-34.125-9.866-56.679-10.142-87.655.34-2.654 5.94-10.058 5.599-7.415 9.75-8.222t6.034 9.605q1.88 10.403 4.072 45.316 2.182 34.915 6.57 63.36 1.533-18.685 9.402-36.586 7.867-17.91 18.94-20.062 18.828-3.66 22.38 14.618 2.367 12.172-2.927 23.408-5.285 11.225-16.284 19.68-2.268 1.591-1.999 2.975.27 1.384 1.363 2.608 23.416 27.334 38.019 37.423 3.963 2.673 7.84 1.92"></path></svg></svg>